# xmcd
#
# Track frame offsets: 
#        150
#        20376
#        34161
#        59282
#        72410
#        93542
#        111454
#        129456
#        146180
#        161740
#        184770
#        206393
#        227718
#        250434
#
# Disc length: 3581 seconds
#
# Revision: 0
# Processed by: cddbd v1.5.2PL0 Copyright (c) Steve Scherf et al.
# Submitted via: ExactAudioCopy v0.95b4
#
DISCID=d00dfb0e
DTITLE=Deca - The Hedonist
DYEAR=2006
DGENRE=Hip-Hop
TTITLE0=Second Time Around
TTITLE1=The Breaks
TTITLE2=Blackboard Jungle (Feat. Pablo Key, Ichiban and Mane Rok)
TTITLE3=Sideshow Freak
TTITLE4=Heaven (Feat. BDBeyond and Ase)
TTITLE5=Caged Bird (Feat. Adam Waltner and Ichiban)
TTITLE6=Strange Times
TTITLE7=Aquarium
TTITLE8=Strung Out Dreamer
TTITLE9=No More (Feat. Paas)
TTITLE10=Gemstar
TTITLE11=Lady Ice (Feat. Yonnas)
TTITLE12=The Hedonist
TTITLE13=Still Got Another Day
EXTD=
EXTT0=
EXTT1=
EXTT2=
EXTT3=
EXTT4=
EXTT5=
EXTT6=
EXTT7=
EXTT8=
EXTT9=
EXTT10=
EXTT11=
EXTT12=
EXTT13=
PLAYORDER=
